HIERARCHY
ROOT Hips
{
	OFFSET 0.000000  0.463670  0.080341
	CHANNELS 6 Xposition Yposition Zposition Zrotation Yrotation Xrotation 
	JOINT LHipJoint
	{
		OFFSET 0 0 0
		CHANNELS 3 Zrotation Yrotation Xrotation
		JOINT LeftUpLeg
		{
			OFFSET 0.949434 -0.248378 0.086503
			CHANNELS 3 Zrotation Yrotation Xrotation
			JOINT LeftLeg
			{
				OFFSET -0.076513 -3.879421 -0.177038
				CHANNELS 3 Zrotation Yrotation Xrotation
				JOINT LeftFoot
				{
					OFFSET -0.188964 -3.680973 -0.122632
					CHANNELS 3 Zrotation Yrotation Xrotation
					JOINT LeftToeBase
					{
						OFFSET 0.055451 -0.524480 1.120382
						CHANNELS 3 Zrotation Yrotation Xrotation
						End Site
						{
							OFFSET 0.007944 -0.006006 0.139660
						}
					}
				}
			}
		}
	}
	JOINT RHipJoint
	{
		OFFSET 0 0 0
		CHANNELS 3 Zrotation Yrotation Xrotation
		JOINT RightUpLeg
		{
			OFFSET -0.949434 -0.248378 0.086503
			CHANNELS 3 Zrotation Yrotation Xrotation
			JOINT RightLeg
			{
				OFFSET 0.076513 -3.879421 -0.177038
				CHANNELS 3 Zrotation Yrotation Xrotation
				JOINT RightFoot
				{
					OFFSET 0.188964 -3.680973 -0.122632
					CHANNELS 3 Zrotation Yrotation Xrotation
					JOINT RightToeBase
					{
						OFFSET -0.055451 -0.524480 1.120382
						CHANNELS 3 Zrotation Yrotation Xrotation
						End Site
						{
							OFFSET -0.007944 -0.006006 0.139660
						}
					}
				}
			}
		}
	}
	JOINT LowerBack
	{
		OFFSET 0 0 0
		CHANNELS 3 Zrotation Yrotation Xrotation
		JOINT Spine
		{
			OFFSET 0.000000 0.677144 0.028277
			CHANNELS 3 Zrotation Yrotation Xrotation
			JOINT Spine1
			{
				OFFSET 0.000000 2.156116 -0.508617
				CHANNELS 3 Zrotation Yrotation Xrotation
				JOINT Neck
				{
					OFFSET 0 0 0
					CHANNELS 3 Zrotation Yrotation Xrotation
					JOINT Neck1
					{
						OFFSET 0.000000 1.781871 0.216275
						CHANNELS 3 Zrotation Yrotation Xrotation
						JOINT Head
						{
							OFFSET 0.000000 1.015906 -0.026879
							CHANNELS 3 Zrotation Yrotation Xrotation
							End Site
							{
								OFFSET 0.000000 0.339197 0.983632
							}
						}
					}
				}
				JOINT LeftShoulder
				{
					OFFSET 0 0 0
					CHANNELS 3 Zrotation Yrotation Xrotation
					JOINT LeftArm
					{
						OFFSET 1.565866 1.184736 0.289545
						CHANNELS 3 Zrotation Yrotation Xrotation
						JOINT LeftForeArm
						{
							OFFSET 1.930940 -0.176441 -0.109244
							CHANNELS 3 Zrotation Yrotation Xrotation
							JOINT LeftHand
							{
								OFFSET 2.263412 -0.058986 0.122483
								CHANNELS 3 Zrotation Yrotation Xrotation
								JOINT LeftFingerBase
								{
									OFFSET 0 0 0
									CHANNELS 3 Zrotation Yrotation Xrotation
									JOINT LeftHandIndex1
									{
										OFFSET 0.944218 0.017559 0.358417
										CHANNELS 3 Zrotation Yrotation Xrotation
										End Site
										{
											OFFSET 0.237801 -0.022714 0.035813
										}
									}
								}
								JOINT LThumb
								{
									OFFSET 0 0 0
									CHANNELS 3 Zrotation Yrotation Xrotation
									End Site
									{
										OFFSET 0.234930 -0.092931 0.244282
									}
								}
							}
						}
					}
				}
				JOINT RightShoulder
				{
					OFFSET 0 0 0
					CHANNELS 3 Zrotation Yrotation Xrotation
					JOINT RightArm
					{
						OFFSET -1.565866 1.184736 0.289545
						CHANNELS 3 Zrotation Yrotation Xrotation
						JOINT RightForeArm
						{
							OFFSET -1.930940 -0.176441 -0.109244
							CHANNELS 3 Zrotation Yrotation Xrotation
							JOINT RightHand
							{
								OFFSET -2.263412 -0.058986 0.122483
								CHANNELS 3 Zrotation Yrotation Xrotation
								JOINT RightFingerBase
								{
									OFFSET 0 0 0
									CHANNELS 3 Zrotation Yrotation Xrotation
									JOINT RightHandIndex1
									{
										OFFSET -0.944218 0.017559 0.358417
										CHANNELS 3 Zrotation Yrotation Xrotation
										End Site
										{
											OFFSET -0.237801 -0.022714 0.035813
										}
									}
								}
								JOINT RThumb
								{
									OFFSET 0 0 0
									CHANNELS 3 Zrotation Yrotation Xrotation
									End Site
									{
										OFFSET -0.234930 -0.092931 0.244282
									}
								}
							}
						}
					}
				}
			}
		}
	}
}
MOTION
Frames: 9
Frame Time: .0083333
3.610947 1.735579 0.493579 -62.799801 20.159201 -71.963997 0.000000 0.000000 0.000000 0.177601 19.804001 -92.121498 36.289799 11.764400 145.096603 0.175100 -11.489500 18.604500 0.155300 -2.539400 -6.998900 0.000000 0.000000 0.000000 -22.623199 5.142700 -45.086498 -24.725401 -19.455999 103.937599 -1.694400 -1.007700 -24.995899 -0.004200 -0.420300 1.154800 0.966000 -1.831600 22.201599 4.149700 -1.645200 12.064000 4.248100 -0.776700 0.906500 -6.340600 -5.591200 19.620800 10.635100 -7.606300 -22.648800 4.735500 -3.928600 -11.457700 -0.000000 0.000000 0.000000 -15.734600 -18.051399 37.923302 36.729900 -46.008598 -16.045401 -0.000000 0.000000 -4.681300 25.114799 -25.718399 -11.497900 -7.125000 0.000000 -0.000000 -2.789100 1.997800 2.693400 -0.000000 0.000000 0.000000 42.131100 -17.530199 -15.885700 -8.223400 13.914400 -1.005200 0.000000 0.000000 25.222900 0.697900 -22.269699 -0.264500 7.125000 -0.000000 -0.000000 28.975201 -49.860401 -3.752300
3.664789 1.714263 0.458842 -63.165001 18.949800 -73.220901 0.000000 0.000000 0.000000 0.990000 20.665600 -90.004997 36.118500 12.001000 144.264404 0.128500 -11.603100 18.187000 0.423900 -4.178700 -11.580100 0.000000 0.000000 0.000000 -21.691601 4.944900 -48.006100 -23.794100 -19.651300 101.155296 -1.661600 -1.583500 -24.978100 -0.000400 -0.127700 0.350800 0.757800 -2.121100 22.198500 4.350200 -2.074900 12.217600 4.671900 -1.023400 1.129900 -6.363200 -5.444500 19.533400 10.701700 -7.459800 -21.896400 4.743000 -3.846200 -11.207700 0.000000 0.000000 0.000000 -15.225401 -18.474800 38.144100 35.534302 -45.189899 -15.191200 -0.000000 0.000000 -5.451000 24.596300 -25.974800 -11.336700 -7.125000 0.000000 -0.000000 -3.135600 1.834200 3.038200 0.000000 0.000000 0.000000 43.165798 -17.916700 -14.893200 -8.617700 14.549100 -1.102100 0.000000 0.000000 24.234600 1.020200 -21.721600 -0.377600 7.125000 -0.000000 -0.000000 28.954399 -49.331799 -3.347000
3.717105 1.688474 0.428158 -63.458698 17.683800 -74.503502 0.000000 0.000000 0.000000 1.923300 22.450300 -87.648201 36.025700 12.126200 143.820297 -0.035000 -12.556700 17.402901 0.722100 -5.430100 -15.139400 0.000000 0.000000 0.000000 -20.788799 4.734400 -50.833599 -22.821199 -19.808100 98.274002 -1.615700 -2.115900 -24.858801 -0.001500 0.248400 -0.682400 0.562200 -2.431800 22.238300 4.556900 -2.531400 12.386200 5.101400 -1.286600 1.359800 -6.412300 -5.276700 19.442400 10.834600 -7.283600 -21.192400 4.783600 -3.749000 -10.971900 -0.000000 -0.000000 0.000000 -14.769800 -18.786800 38.462101 34.364899 -44.353298 -14.367500 -0.000000 0.000000 -6.030700 23.831499 -26.229700 -11.046500 -7.125000 0.000000 -0.000000 -3.628600 1.721300 3.525100 -0.000000 -0.000000 0.000000 44.004601 -18.363800 -13.548600 -9.133600 15.373100 -1.235300 0.000000 0.000000 22.294399 0.918600 -21.402300 -0.335200 7.125000 -0.000000 -0.000000 28.687500 -49.066700 -3.111000
3.768421 1.658000 0.398421 -63.631901 16.433201 -75.842003 0.000000 0.000000 0.000000 2.948200 25.250700 -84.996002 35.984501 12.181000 143.624603 -0.306600 -14.268100 16.323799 1.024100 -6.437600 -18.059500 0.000000 0.000000 0.000000 -20.032499 4.551600 -53.489498 -21.799000 -19.922199 95.266602 -1.557500 -2.509100 -24.594999 -0.004500 0.434300 -1.193400 0.345800 -2.747700 22.408400 4.730400 -2.996500 12.567200 5.514200 -1.556700 1.548600 -6.456800 -5.093500 19.385300 11.005000 -7.083000 -20.574301 4.842800 -3.640900 -10.771300 -0.000000 0.000000 0.000000 -14.376499 -18.996401 38.845501 33.237301 -43.511600 -13.585200 -0.000000 0.000000 -6.487100 22.776100 -26.566799 -10.635300 -7.125000 0.000000 -0.000000 -4.304100 1.578100 4.195900 -0.000000 0.000000 0.000000 44.663700 -18.851200 -12.010300 -9.754400 16.354401 -1.405000 0.000000 0.000000 19.619101 0.268200 -21.408899 -0.097900 7.125000 -0.000000 -0.000000 28.111500 -49.168098 -3.113500
3.820158 1.624211 0.368053 -63.658901 15.273400 -77.167198 0.000000 0.000000 0.000000 4.142599 29.525999 -82.002602 35.984501 12.181000 143.624603 -0.734400 -16.976601 14.917700 1.320500 -7.277900 -20.541401 0.000000 0.000000 0.000000 -19.541599 4.447800 -56.015800 -20.733999 -19.987101 92.146400 -1.505900 -2.719900 -24.299101 -0.007200 0.548300 -1.506600 0.048100 -3.053300 22.607100 4.841100 -3.467900 12.746900 5.908000 -1.835500 1.732400 -6.385000 -4.904700 19.391001 11.483200 -6.869500 -20.072500 4.489000 -3.525300 -10.659100 0.000000 0.000000 0.000000 -14.058100 -19.084299 39.261200 32.172100 -42.683998 -12.857400 -0.000000 0.000000 -6.909400 21.483801 -26.978800 -10.123700 -7.125000 0.000000 -0.000000 -5.126500 1.398700 5.020200 0.000000 0.000000 0.000000 45.150799 -19.345100 -10.435600 -10.455100 17.448299 -1.608700 0.000000 0.000000 16.547501 -0.940300 -21.688499 0.347500 7.125000 -0.000000 -0.000000 27.179199 -49.595299 -3.298100
3.872631 1.588105 0.333895 -63.573601 14.285500 -78.514198 0.000000 0.000000 0.000000 5.447400 34.822102 -78.598297 35.943298 12.235500 143.429794 -1.361200 -20.572599 12.495300 1.968300 -8.799700 -25.170700 0.000000 0.000000 0.000000 -19.442900 4.436900 -58.336601 -19.622101 -19.996599 88.895103 -1.479700 -2.654300 -24.068199 -0.002900 0.344800 -0.947300 -0.407400 -3.343700 22.865200 4.890100 -3.952900 12.926800 6.331100 -2.131600 1.905300 -6.287200 -4.721400 19.426899 11.514600 -6.656400 -19.626200 4.479700 -3.411400 -10.556800 -0.000000 0.000000 0.000000 -13.884300 -19.070499 39.638401 31.146799 -41.856300 -12.167700 -0.000000 0.000000 -7.327300 20.091400 -27.400000 -9.555100 -7.125000 0.000000 -0.000000 -6.004100 1.222700 5.907400 -0.000000 0.000000 0.000000 45.435902 -19.802500 -8.971600 -11.208400 18.607000 -1.841900 0.000000 0.000000 13.478000 -2.515300 -22.030701 0.944000 7.125000 -0.000000 -0.000000 25.936600 -50.139999 -3.493100
3.924895 1.550474 0.293000 -63.376598 13.507600 -79.895897 0.000000 0.000000 0.000000 7.047500 40.488499 -74.827599 35.834202 12.377800 142.917892 -1.972800 -23.929501 9.864200 2.533800 -9.899100 -28.650499 0.000000 0.000000 0.000000 -19.826900 4.591600 -60.404900 -18.462799 -19.943199 85.501297 -1.467100 -2.425800 -23.867599 -0.000000 -0.028600 0.078500 -1.098000 -3.592100 23.212601 4.887800 -4.431700 13.098700 6.838100 -2.440600 2.053000 -6.195500 -4.553600 19.464001 11.112200 -6.452100 -19.223101 4.819400 -3.308000 -10.413600 -0.000000 -0.000000 0.000000 -13.917900 -18.962700 39.911098 30.142000 -41.014801 -11.502700 -0.000000 0.000000 -7.687400 18.724300 -27.761700 -8.972000 -7.125000 0.000000 -0.000000 -6.854300 1.096500 6.770800 -0.000000 -0.000000 0.000000 45.491100 -20.200001 -7.718100 -11.982900 19.778999 -2.096500 0.000000 0.000000 10.800500 -4.130900 -22.221300 1.564600 7.125000 -0.000000 -0.000000 24.557600 -50.562599 -3.552400
3.976211 1.512632 0.244474 -63.172199 12.919400 -81.311401 0.000000 0.000000 0.000000 8.835000 45.136299 -71.031998 35.653999 12.607100 142.084900 -2.424900 -26.451300 7.174100 3.108300 -10.868400 -31.837400 0.000000 0.000000 0.000000 -20.694599 4.921400 -62.182800 -17.254700 -19.818300 81.949997 -1.463100 -2.166800 -23.722799 -0.007100 -0.544700 1.496700 -2.032800 -3.807900 23.609301 4.869500 -4.923600 13.249200 7.476000 -2.775800 2.194300 -6.014600 -4.415200 19.568300 10.952900 -6.285400 -18.893499 4.725900 -3.220900 -10.354300 -0.000000 -0.000000 0.000000 -14.175800 -18.744499 40.052601 29.158100 -40.160702 -10.862500 -0.000000 0.000000 -7.910500 17.501200 -28.003401 -8.421600 -7.125000 0.000000 -0.000000 -7.602100 1.060100 7.527100 -0.000000 -0.000000 0.000000 45.300301 -20.503201 -6.738100 -12.739600 20.904499 -2.359600 0.000000 0.000000 8.823400 -5.458300 -22.149500 2.063300 7.125000 -0.000000 -0.000000 23.291901 -50.705601 -3.435700
4.024684 1.475474 0.189000 -63.019699 12.472900 -82.748398 0.000000 0.000000 0.000000 10.413100 47.977001 -67.583900 35.414299 12.901500 140.999298 -2.624700 -27.830400 4.715100 3.678100 -11.719300 -34.745899 0.000000 0.000000 0.000000 -22.070299 5.470500 -63.684101 -16.015100 -19.614901 78.276604 -1.458900 -2.069200 -23.648100 -0.023200 -0.984300 2.705700 -3.238900 -3.983900 23.999901 4.894200 -5.429400 13.394200 8.322200 -3.146600 2.394900 -5.878100 -4.305800 19.709000 10.719600 -6.154600 -18.614500 4.615900 -3.153800 -10.315200 -0.000000 0.000000 0.000000 -14.679800 -18.443300 40.020802 28.165701 -39.268299 -10.228400 -0.000000 0.000000 -7.927600 16.514400 -28.091999 -7.947800 -7.125000 0.000000 -0.000000 -8.193200 1.133300 8.113400 -0.000000 0.000000 0.000000 44.820702 -20.647900 -6.013400 -13.455800 21.951401 -2.621200 0.000000 0.000000 7.647800 -6.294400 -21.823099 2.348000 7.125000 -0.000000 -0.000000 22.347700 -50.536598 -3.187400
